<?xml version="1.0" standalone="no"?>
<!DOCTYPE svg PUBLIC "-//W3C//DTD SVG 20010904//EN"
 "http://www.w3.org/TR/2001/REC-SVG-20010904/DTD/svg10.dtd">
<svg version="1.0" xmlns="http://www.w3.org/2000/svg"
 width="256.000000pt" height="256.000000pt" viewBox="0 0 256.000000 256.000000"
 preserveAspectRatio="xMidYMid meet">

<g transform="translate(0.000000,256.000000) scale(0.100000,-0.100000)"
fill="#000000" stroke="none">
<path d="M2080 1896 c0 -2 8 -10 18 -17 15 -13 16 -12 3 4 -13 16 -21 21 -21
13z"/>
<path d="M1281 1859 c-85 -34 -261 -195 -335 -307 -107 -163 -176 -370 -176
-528 0 -30 -4 -54 -8 -54 -24 0 -141 93 -220 174 -93 96 -152 184 -207 311
-18 42 -35 78 -38 81 -14 14 -32 -145 -31 -271 1 -116 6 -157 28 -239 113
-429 488 -739 926 -763 487 -27 921 290 1047 762 35 132 39 345 9 470 l-19 80
-9 -38 c-25 -115 -133 -291 -251 -408 -69 -69 -184 -157 -191 -147 -2 1 -8 46
-14 99 -36 295 -178 543 -414 719 -42 32 -74 61 -71 64 8 8 3 7 -26 -5z"/>
<path d="M2210 1671 c0 -6 4 -13 10 -16 6 -3 7 1 4 9 -7 18 -14 21 -14 7z"/>
</g>
</svg>
